<?xml version="1.0" encoding="utf-8"?>
<!-- Generator: Adobe Illustrator 26.0.1, SVG Export Plug-In . SVG Version: 6.00 Build 0)  -->
<svg version="1.1" xmlns="http://www.w3.org/2000/svg" xmlns:xlink="http://www.w3.org/1999/xlink" x="0px" y="0px"
	 viewBox="0 0 500 500" style="enable-background:new 0 0 500 500;" xml:space="preserve">
<style type="text/css">
	.st0{fill:#F5333F;}
	.st1{fill:none;stroke:#011E41;stroke-width:16;stroke-miterlimit:10;}
	.st2{display:none;}
	.st3{display:inline;}
	.st4{fill:none;stroke:#D1D3D4;stroke-width:2;stroke-miterlimit:10;}
	.st5{display:inline;fill:none;stroke:#BCBEC0;stroke-width:4;stroke-miterlimit:10;}
	.st6{fill:none;stroke:#BCBEC0;stroke-width:4;stroke-miterlimit:10;}
	.st7{display:inline;fill:none;stroke:#D1D3D4;stroke-width:2;stroke-miterlimit:10;}
	.st8{display:none;opacity:0.35;fill:none;stroke:#000000;stroke-width:16;stroke-miterlimit:10;}
	.st9{fill:none;stroke:#011E41;stroke-width:16;stroke-linejoin:bevel;stroke-miterlimit:10;}
	.st10{fill:none;stroke:#F5333F;stroke-width:16;stroke-miterlimit:10;}
	.st11{fill:#011E41;}
	.st12{fill:none;stroke:#011E41;stroke-width:16;stroke-linecap:square;stroke-miterlimit:10;}
	.st13{fill:none;stroke:#011E41;stroke-width:16;stroke-linecap:round;stroke-miterlimit:10;}
	.st14{fill:none;stroke:#EF3741;stroke-width:16;stroke-miterlimit:10;}
	.st15{fill:#F5333F;stroke:#011E41;stroke-width:16;stroke-miterlimit:10;}
	.st16{fill:#EF3741;}
	.st17{fill:none;stroke:#011E41;stroke-width:8;stroke-miterlimit:10;}
	.st18{fill:none;stroke:#E73843;stroke-width:16;stroke-miterlimit:10;}
	.st19{fill:none;stroke:#011E41;stroke-width:13.4168;stroke-miterlimit:10;}
	.st20{fill:none;stroke:#011E41;stroke-width:13.8969;stroke-miterlimit:10;}
	.st21{fill:none;stroke:#011E41;stroke-width:14.2064;stroke-miterlimit:10;}
	.st22{fill:none;stroke:#011E41;stroke-width:15.0584;stroke-miterlimit:10;}
	.st23{fill:none;stroke:#011E41;stroke-width:15.1473;stroke-miterlimit:10;}
	.st24{fill:none;stroke:#011E41;stroke-width:16.5604;stroke-miterlimit:10;}
	.st25{fill:none;stroke:#011E41;stroke-width:14.3418;stroke-miterlimit:10;}
	.st26{fill:none;stroke:#011E41;stroke-width:15.8515;stroke-miterlimit:10;}
	.st27{fill:#F53340;}
</style>
<g id="Icons">
	<g>
		<path class="st0" d="M65.02,446.3h155.33V69.04L118.76,89.55v112.44c0,29.64-24.06,53.67-53.75,53.67h0V446.3z"/>
		<path class="st0" d="M406.8,446.3H251.47V69.04l101.58,20.52v112.44c0,29.64,21.06,53.67,50.75,53.67h3V446.3z"/>
		<g>
			<line class="st1" x1="79.11" y1="324.82" x2="79.11" y2="351.21"/>
			<path class="st1" d="M79.11,378.49v53.04h56.75h37.1h61.48V53.7L132.86,74.25v112.6c0,29.68-24.06,53.75-53.75,53.75h0v57.97"/>
			<rect x="138.17" y="148.18" class="st1" width="94.67" height="25.38"/>
			<polyline class="st1" points="205.66,302.23 205.66,378.49 126.29,378.49 126.29,302.23 			"/>
			<path class="st1" d="M183.4,326.16h-34.85c-12.29,0-22.26-9.97-22.26-22.26v-6.08h79.37v6.08
				C205.66,316.2,195.7,326.16,183.4,326.16z"/>
			<rect x="60.34" y="351.21" class="st1" width="37.54" height="27.28"/>
			<rect x="60.34" y="297.54" class="st1" width="37.54" height="27.28"/>
			<line class="st1" x1="259.55" y1="135.86" x2="234.91" y2="135.86"/>
			<line class="st1" x1="234.91" y1="431.53" x2="259.55" y2="431.53"/>
			<line class="st1" x1="420.89" y1="324.82" x2="420.89" y2="351.21"/>
			<path class="st1" d="M420.89,378.49v53.04h-56.75h-37.1h-61.48V53.7l101.58,20.55v112.6c0,29.68,21.06,53.75,50.75,53.75h3v57.97
				"/>
			
				<rect x="267.16" y="148.18" transform="matrix(-1 -4.490376e-11 4.490376e-11 -1 628.9981 321.7432)" class="st1" width="94.67" height="25.38"/>
			<polyline class="st1" points="294.34,302.23 294.34,378.49 373.71,378.49 373.71,302.23 			"/>
			<path class="st1" d="M316.6,326.16h34.85c12.29,0,22.26-9.97,22.26-22.26v-6.08h-79.37v6.08
				C294.34,316.2,304.3,326.16,316.6,326.16z"/>
			
				<rect x="402.12" y="351.21" transform="matrix(-1 -4.472257e-11 4.472257e-11 -1 841.7849 729.6949)" class="st1" width="37.54" height="27.28"/>
			
				<rect x="402.12" y="297.54" transform="matrix(-1 -4.501345e-11 4.501345e-11 -1 841.7849 622.3635)" class="st1" width="37.54" height="27.28"/>
		</g>
	</g>
</g>
<g id="Text">
</g>
</svg>
