<?xml version="1.0" encoding="UTF-8"?><svg id="b" xmlns="http://www.w3.org/2000/svg" viewBox="0 0 173.67 54.99"><g id="c"><path d="M36.39,.1V18.3h18.18v18.24h-18.18v18.21H18.18v-18.21H0V18.3H18.18V.1h18.21Z" style="fill:#e60005;"/><path d="M68.75,.01h6.54c3.91,0,6.83,2.46,6.83,7.44,0,4.37-2.23,7.61-6.83,7.61h-6.51V.01m3.3,12.3h2.95c1.91,0,3.76-1.19,3.76-4.51,0-3.04-1.04-4.98-4.34-4.98h-2.37s0,9.49,0,9.49Zm14.33-1.94c.09,1.91,1.01,2.78,2.69,2.78,1.22,0,2.18-.72,2.38-1.42h2.64c-.84,2.58-2.63,3.68-5.1,3.68-3.44,0-5.59-2.37-5.59-5.73s2.26-5.76,5.59-5.76c3.71,0,5.53,3.13,5.3,6.48l-7.9-.03m4.89-1.91c-.26-1.53-.93-2.31-2.37-2.31-1.91,0-2.46,1.47-2.49,2.31h4.86Zm15,6.66h-2.84v-1.53h-.06c-.72,1.15-1.97,1.85-3.33,1.85-3.18,0-4-1.82-4-4.49V4.18h3.01v6.17c0,1.82,.52,2.69,1.91,2.69,1.62,0,2.32-.9,2.32-3.13V4.18h3.01l-.03,10.94m6.22-10.94h2.2v2h-2.2v5.44c0,1.01,.26,1.28,1.27,1.28,.32,0,.61-.03,.93-.09v2.35c-.52,.09-1.16,.11-1.8,.11-1.85,0-3.44-.43-3.44-2.6V6.2h-1.8v-2.03h1.85V.91h3.01l-.03,3.27m6.14,7.38c.03,1.3,1.13,1.85,2.31,1.85,.87,0,1.97-.35,1.97-1.39,0-.9-1.24-1.22-3.39-1.68-1.74-.38-3.47-.98-3.47-2.92,0-2.78,2.4-3.5,4.74-3.5s4.57,.81,4.81,3.47h-2.87c-.08-1.16-.98-1.48-2.06-1.48-.67,0-1.68,.12-1.68,1.01,0,1.07,1.68,1.22,3.39,1.62,1.79,.4,3.47,1.04,3.47,3.07,0,2.87-2.49,3.79-4.98,3.79s-5.01-.96-5.12-3.85h2.86m16.3-3.56c-.2-1.22-.98-1.88-2.23-1.88-1.91,0-2.55,1.94-2.55,3.56s.61,3.44,2.49,3.44c1.39,0,2.2-.9,2.38-2.23h2.9c-.38,2.9-2.38,4.49-5.27,4.49-3.3,0-5.53-2.32-5.53-5.59s2.03-5.9,5.59-5.9c2.58,0,4.95,1.36,5.12,4.14l-2.89-.03m4.69-7.99h3.01V5.68h.06c.76-1.21,2.06-1.85,3.19-1.85,3.19,0,3.99,1.82,3.99,4.49v6.74h-3.01v-6.16c0-1.82-.52-2.69-1.91-2.69-1.62,0-2.32,.9-2.32,3.13v5.73h-3.01V.01m14.88,10.36c.09,1.91,1.01,2.78,2.69,2.78,1.22,0,2.17-.72,2.37-1.42h2.63c-.84,2.58-2.63,3.68-5.12,3.68-3.44,0-5.59-2.37-5.59-5.73s2.26-5.76,5.59-5.76c3.71,0,5.53,3.13,5.3,6.48l-7.87-.03m4.86-1.91c-.29-1.53-.92-2.31-2.37-2.31-1.91,0-2.46,1.47-2.49,2.31h4.86Zm7.09,3.1c.03,1.3,1.13,1.85,2.29,1.85,.87,0,1.97-.35,1.97-1.39,0-.9-1.24-1.22-3.39-1.68-1.74-.38-3.47-.98-3.47-2.92,0-2.78,2.4-3.5,4.75-3.5s4.57,.81,4.81,3.47h-2.87c-.09-1.16-.98-1.48-2.06-1.48-.66,0-1.68,.12-1.68,1.01,0,1.07,1.68,1.22,3.39,1.62,1.74,.4,3.47,1.04,3.47,3.07,0,2.87-2.49,3.79-4.98,3.79s-5.01-.96-5.12-3.85h2.89m-97.67,8.22h8.13c2.69,0,4.4,1.88,4.4,4.17,0,1.79-.72,3.1-2.37,3.79v.06c1.62,.43,2.08,2,2.2,3.53,.06,.96,.03,2.72,.64,3.56h-3.33c-.4-.96-.35-2.4-.52-3.62-.23-1.59-.84-2.29-2.52-2.29h-3.33v5.88h-3.33l.03-15.08m3.3,6.83h3.61c1.48,0,2.29-.64,2.29-2.14s-.81-2.08-2.29-2.08h-3.61v4.22h0Zm16.67-2.95c3.44,0,5.64,2.29,5.64,5.76s-2.23,5.73-5.64,5.73-5.64-2.29-5.64-5.73c-.03-3.47,2.23-5.76,5.64-5.76m0,9.26c2.06,0,2.66-1.8,2.66-3.47,0-1.8-.61-3.5-2.66-3.5s-2.64,1.79-2.64,3.5,.58,3.47,2.64,3.47m11.35-9h2.2v2h-2.2v5.44c0,1.01,.26,1.27,1.27,1.27,.32,0,.61-.03,.93-.08v2.35c-.52,.08-1.16,.11-1.79,.11-1.86,0-3.45-.43-3.45-2.6v-6.46h-1.85v-2h1.85v-3.27h3.01v3.24m6.2,6.25c.09,1.91,1.01,2.78,2.69,2.78,1.22,0,2.17-.75,2.38-1.42h2.63c-.84,2.58-2.63,3.68-5.12,3.68-3.45,0-5.59-2.37-5.59-5.73s2.26-5.76,5.59-5.76c3.7,0,5.53,3.13,5.3,6.49l-7.88-.03m4.89-1.91c-.29-1.54-.93-2.32-2.37-2.32-1.91,0-2.46,1.48-2.49,2.32h4.86Zm7.09,3.07c.03,1.3,1.13,1.85,2.31,1.85,.87,0,1.97-.34,1.97-1.39,0-.9-1.25-1.22-3.39-1.68-1.74-.38-3.47-.98-3.47-2.92,0-2.78,2.4-3.5,4.75-3.5s4.57,.81,4.8,3.47h-2.81c-.08-1.16-.95-1.48-2.05-1.48-.66,0-1.68,.12-1.68,1.01,0,1.07,1.68,1.21,3.39,1.62,1.79,.4,3.47,1.04,3.47,3.07,0,2.87-2.49,3.79-4.98,3.79s-5.01-.96-5.12-3.85h2.81m-49.53,8.25h3.33v6.28l5.9-6.28h4.14l-5.88,5.93,6.46,9.15h-4.17l-4.54-6.78-1.91,1.94v4.83h-3.33v-15.08h0Zm14.97,4.15h2.84v2.03h.03c.55-1.36,2.03-2.32,3.48-2.32,.2,0,.46,.03,.67,.12v2.78c-.35-.07-.71-.11-1.07-.12-2.2,0-2.95,1.59-2.95,3.5v4.92h-3.01l.03-10.91m10.3,6.22c.09,1.91,1.01,2.75,2.69,2.75,1.19,0,2.17-.75,2.37-1.42h2.64c-.84,2.58-2.64,3.68-5.12,3.68-3.44,0-5.59-2.37-5.59-5.73s2.26-5.76,5.59-5.76c3.71,0,5.53,3.13,5.3,6.48h-7.88m4.86-1.91c-.29-1.54-.93-2.32-2.37-2.32-1.91,0-2.46,1.48-2.49,2.31h4.86Zm14.82,6.64h-2.84v-1.51h-.06c-.71,1.15-1.97,1.85-3.33,1.85-3.18,0-3.99-1.82-3.99-4.49v-6.72h3.01v6.17c0,1.82,.52,2.69,1.91,2.69,1.62,0,2.32-.89,2.32-3.12v-5.73h3.01l-.03,10.85m1.68-2.26l5.65-6.4h-5.21v-2.29h9.18v2.29l-5.64,6.4h6.05v2.26h-10.02v-2.26h-.01Z" style="fill:#333;"/></g></svg>