<svg xmlns="http://www.w3.org/2000/svg" viewBox="0 0 841.89 380.21"><path fill="#fff" d="M94.73 93.38h652.43v193.44H94.73z"/><path d="M175.8 204.95h-34.05v-29.19h34.05v-34.07h29.18v34.05l-.01.02h34.06v29.18h-34.06l.01-.01v34.05H175.8v-34.05zm108.37-15.13c0-22.67 18.38-41.06 41.06-41.06 5.05 0 9.89.91 14.35 2.58a49.042 49.042 0 00-30.55-10.62c-27.21 0-49.27 22.06-49.27 49.27s22.06 49.27 49.27 49.27c11.92 0 22.86-4.24 31.39-11.29-4.7 1.87-9.82 2.9-15.18 2.9-22.68.01-41.07-18.38-41.07-41.05" fill="#f5333f"/><path d="M657.92 239.28c8.26 0 15.75-1.46 22.46-4.36 6.72-2.91 12.34-7.12 16.88-12.66l-14.16-13.07c-6.45 7.54-14.43 11.3-23.96 11.3-5.9 0-11.17-1.29-15.79-3.88-4.63-2.59-8.24-6.19-10.82-10.82-2.59-4.63-3.88-9.89-3.88-15.79 0-5.9 1.3-11.17 3.88-15.8 2.58-4.63 6.19-8.24 10.82-10.82 4.63-2.59 9.89-3.88 15.79-3.88 9.53 0 17.52 3.72 23.96 11.17l14.16-13.07c-4.54-5.45-10.14-9.62-16.82-12.52-6.67-2.91-14.13-4.36-22.39-4.36-9.8 0-18.63 2.11-26.48 6.33-7.86 4.22-14.03 10.08-18.52 17.56-4.49 7.49-6.74 15.96-6.74 25.39 0 9.44 2.25 17.9 6.74 25.39 4.49 7.49 10.66 13.34 18.52 17.56 7.85 4.22 16.63 6.33 26.35 6.33m-88.09-62.35c0 5.27-1.72 9.35-5.17 12.26s-8.49 4.36-15.11 4.36h-17.97v-33.22h17.97c6.63 0 11.66 1.43 15.11 4.29 3.45 2.84 5.17 6.95 5.17 12.31m24.1 60.72l-21.37-30.63c6.26-2.72 11.1-6.65 14.5-11.78 3.4-5.13 5.1-11.23 5.1-18.31 0-7.08-1.68-13.2-5.03-18.38-3.36-5.17-8.15-9.17-14.36-11.98-6.22-2.81-13.55-4.22-21.99-4.22h-41.25v95.3h22.06V211.1h20.29l18.38 26.55h23.67zm-103.47-77.61v-17.7h-72.02v95.3h22.06v-34.72h44.11v-17.7H440.5v-25.19h49.96zm-116.68 77.61h22.06v-95.3h-22.06v95.3z" fill="#333132"/></svg>