<svg id="Layer_1" data-name="Layer 1" xmlns="http://www.w3.org/2000/svg" viewBox="0 0 141.73 70.87">
  <defs>
    <style>
      .cls-1 {
        fill: #fff;
      }

      .cls-2 {
        fill: #dc281e;
      }

      .cls-3 {
        fill: #646464;
      }
    </style>
  </defs>
  <rect class="cls-1" width="141.73" height="70.87"/>
  <polygon class="cls-2" points="56.69 28.35 42.52 28.35 42.52 14.17 28.35 14.17 28.35 28.35 14.17 28.35 14.17 42.52 28.35 42.52 28.35 56.69 42.52 56.69 42.52 42.52 56.69 42.52 56.69 28.35"/>
  <g>
    <path class="cls-3" d="M92.1,32.16a6.59,6.59,0,0,0,6.69-6.88,6.5,6.5,0,0,0-6.69-6.89,6.6,6.6,0,0,0-6.69,6.89A6.49,6.49,0,0,0,92.1,32.16Zm0-11.49c2.36,0,4.12,1.68,4.12,4.61s-1.76,4.6-4.12,4.6S88,28.2,88,25.28,89.74,20.67,92.1,20.67Z" transform="translate(0)"/>
    <path class="cls-3" d="M111.59,31.51a.34.34,0,0,0,.39.39h1.67a.34.34,0,0,0,.38-.39v-17a.34.34,0,0,0-.38-.39h-1.72a.34.34,0,0,0-.39.39v6a4.77,4.77,0,0,0-4.24-2.13c-3.69,0-6.31,2.8-6.31,6.93s2.58,6.84,6.22,6.84a4.87,4.87,0,0,0,4.38-2.27Zm-4.08-1.63c-2.36,0-3.94-1.68-3.94-4.6s1.58-4.61,3.94-4.61,4.12,1.68,4.12,4.61S109.87,29.88,107.51,29.88Z" transform="translate(0)"/>
    <g>
      <path class="cls-3" d="M113.82,38.62h-2a.34.34,0,0,0-.39.38v2a.34.34,0,0,0,.39.39h2a.34.34,0,0,0,.39-.39V39A.34.34,0,0,0,113.82,38.62Z" transform="translate(0)"/>
      <path class="cls-3" d="M113.69,43.44H112c-.26,0-.39.12-.39.38V56.3a.34.34,0,0,0,.39.39h1.71a.34.34,0,0,0,.39-.39V43.82C114.08,43.56,114,43.44,113.69,43.44Z" transform="translate(0)"/>
    </g>
    <path class="cls-3" d="M71.25,31.9H73a.34.34,0,0,0,.39-.39V25.19h2.91L80.9,31.6a.7.7,0,0,0,.6.3h2.06c.39,0,.43-.34.26-.56l-4.76-6.58a5,5,0,0,0,4.28-5c0-3.79-3-5.55-6.26-5.55H71.25c-.26,0-.38.13-.38.39v17C70.87,31.77,71,31.9,71.25,31.9Zm9.48-12.18c0,1.94-1.37,3.1-3.86,3.1H73.4v-6.2h3.47C79.36,16.62,80.73,17.79,80.73,19.72Z" transform="translate(0)"/>
    <path class="cls-3" d="M107.41,43.44h-1.72a.33.33,0,0,0-.38.38V51c0,2.15-1.25,3.65-3.39,3.65-2,0-3.26-1.28-3.26-3.65V43.82c0-.26-.13-.38-.39-.38H96.55a.33.33,0,0,0-.38.38V51.4A5.2,5.2,0,0,0,101.49,57a4.21,4.21,0,0,0,3.86-2V56.3a.34.34,0,0,0,.38.39h1.68a.34.34,0,0,0,.38-.39V43.82A.33.33,0,0,0,107.41,43.44Z" transform="translate(0)"/>
    <path class="cls-3" d="M123,18.39c-3.39,0-6.13,2.75-6.13,6.89s2.74,6.88,6.47,6.88a6.42,6.42,0,0,0,5.19-2.37.37.37,0,0,0,0-.56l-1-1c-.17-.17-.34-.17-.56,0a4.78,4.78,0,0,1-3.55,1.68,3.9,3.9,0,0,1-4-3.61h9.23c.38,0,.43-.3.43-.86C129.1,21.06,126.65,18.39,123,18.39Zm-3.59,5.85c.34-2.56,1.91-3.61,3.59-3.61,1.89,0,3.34,1.33,3.56,3.61Z" transform="translate(0)"/>
    <path class="cls-3" d="M123.1,49c-1.63-.48-3.09-.91-3.09-2.11,0-.9.86-1.46,2.53-1.46a6.57,6.57,0,0,1,3.35.94.4.4,0,0,0,.56-.17l.64-1.29a.39.39,0,0,0-.17-.56,10.08,10.08,0,0,0-4.51-1.17c-2.83,0-4.88,1.42-4.88,3.88,0,2.62,2.4,3.4,4.58,4,1.76.52,3,.87,3,2,0,.9-.74,1.63-2.75,1.63a7.85,7.85,0,0,1-4.12-1.29.36.36,0,0,0-.56.17L117,54.88a.42.42,0,0,0,.09.52A9.7,9.7,0,0,0,122.5,57c3,0,5.06-1.51,5.06-4C127.56,50.24,125.2,49.59,123.1,49Z" transform="translate(0)"/>
    <path class="cls-3" d="M77.08,46.79,84,39.52a.33.33,0,0,0-.26-.56H81.63a.77.77,0,0,0-.64.3L73.4,47.32v-8A.34.34,0,0,0,73,39H71.25c-.26,0-.38.13-.38.39V56.3c0,.26.12.39.38.39H73a.34.34,0,0,0,.39-.39V50.55l1.88-2,6,7.83a.77.77,0,0,0,.64.3H84c.38,0,.43-.34.26-.56Z" transform="translate(0)"/>
    <path class="cls-3" d="M88.79,51.53c0-3.49,1.88-5.64,4.76-5.64.26,0,.38-.13.38-.39V43.56c0-.26-.12-.39-.38-.39a5,5,0,0,0-4.81,3.36V43.82a.33.33,0,0,0-.38-.38H86.68a.33.33,0,0,0-.38.38V56.3c0,.26.12.39.38.39H88.4a.34.34,0,0,0,.39-.39Z" transform="translate(0)"/>
  </g>
</svg>
