<?xml version="1.0" encoding="utf-8"?>
<!-- Generator: Adobe Illustrator 26.0.1, SVG Export Plug-In . SVG Version: 6.00 Build 0)  -->
<svg version="1.1" xmlns="http://www.w3.org/2000/svg" xmlns:xlink="http://www.w3.org/1999/xlink" x="0px" y="0px"
	 viewBox="0 0 500 500" style="enable-background:new 0 0 500 500;" xml:space="preserve">
<style type="text/css">
	.st0{fill:#F5333F;}
	.st1{fill:none;stroke:#011E41;stroke-width:16;stroke-miterlimit:10;}
	.st2{display:none;}
	.st3{display:inline;}
	.st4{fill:none;stroke:#D1D3D4;stroke-width:2;stroke-miterlimit:10;}
	.st5{display:inline;fill:none;stroke:#BCBEC0;stroke-width:4;stroke-miterlimit:10;}
	.st6{fill:none;stroke:#BCBEC0;stroke-width:4;stroke-miterlimit:10;}
	.st7{display:inline;fill:none;stroke:#D1D3D4;stroke-width:2;stroke-miterlimit:10;}
	.st8{display:none;opacity:0.35;fill:none;stroke:#000000;stroke-width:16;stroke-miterlimit:10;}
	.st9{fill:none;stroke:#011E41;stroke-width:16;stroke-linejoin:bevel;stroke-miterlimit:10;}
	.st10{fill:none;stroke:#F5333F;stroke-width:16;stroke-miterlimit:10;}
	.st11{fill:#011E41;}
	.st12{fill:none;stroke:#011E41;stroke-width:16;stroke-linecap:square;stroke-miterlimit:10;}
	.st13{fill:none;stroke:#011E41;stroke-width:16;stroke-linecap:round;stroke-miterlimit:10;}
	.st14{fill:none;stroke:#EF3741;stroke-width:16;stroke-miterlimit:10;}
	.st15{fill:#F5333F;stroke:#011E41;stroke-width:16;stroke-miterlimit:10;}
	.st16{fill:#EF3741;}
	.st17{fill:none;stroke:#011E41;stroke-width:8;stroke-miterlimit:10;}
	.st18{fill:none;stroke:#E73843;stroke-width:16;stroke-miterlimit:10;}
	.st19{fill:none;stroke:#011E41;stroke-width:13.4168;stroke-miterlimit:10;}
	.st20{fill:none;stroke:#011E41;stroke-width:13.8969;stroke-miterlimit:10;}
	.st21{fill:none;stroke:#011E41;stroke-width:14.2064;stroke-miterlimit:10;}
	.st22{fill:none;stroke:#011E41;stroke-width:15.0584;stroke-miterlimit:10;}
	.st23{fill:none;stroke:#011E41;stroke-width:15.1473;stroke-miterlimit:10;}
	.st24{fill:none;stroke:#011E41;stroke-width:16.5604;stroke-miterlimit:10;}
	.st25{fill:none;stroke:#011E41;stroke-width:14.3418;stroke-miterlimit:10;}
	.st26{fill:none;stroke:#011E41;stroke-width:15.8515;stroke-miterlimit:10;}
	.st27{fill:#F53340;}
</style>
<g id="Icons">
	<g>
		<path class="st0" d="M318.89,172.33h40.51c7.66,0,60.29-3.3,84.63-4.86c6.92-0.44,12.3-6.18,12.3-13.11v0
			c0-5.89-3.93-11.07-9.6-12.65l-26.79-7.48l-5.91-2.91c-10.5-5.18-22.06-7.87-33.77-7.87H138.95L94.53,70H73.66l13.52,53.8
			l-4.38,3.04c-5.37,3.73-8.57,9.85-8.57,16.39v0c0,6.22,2.9,12.08,7.83,15.86l0,0c3.49,2.67,7.42,4.72,11.64,5.95
			c16.55,4.83,33.71,7.29,50.97,7.29h88.51"/>
		<rect x="43.66" y="260.68" class="st0" width="303.49" height="165.32"/>
		<g>
			<polyline class="st1" points="443.4,348.63 391.11,348.63 391.11,318.28 430.8,318.28 			"/>
			<polyline class="st1" points="449.04,379.02 434.8,379.02 421.95,379.02 			"/>
			<polyline class="st1" points="86.65,379.02 72.41,379.02 59.55,379.02 			"/>
			<line class="st1" x1="366.23" y1="406" x2="367.16" y2="406"/>
			<path class="st1" d="M415.16,406h28.24v-58.66l-15.1-35.25c-2.97-6.94-9.8-11.44-17.35-11.44h-44.72"/>
			<polyline class="st1" points="214.85,406 367.16,406 367.16,240.68 63.66,240.68 63.66,406 118.63,406 			"/>
			<circle class="st1" cx="391.16" cy="406" r="24"/>
			<circle class="st1" cx="190.85" cy="406" r="24"/>
			<circle class="st1" cx="142.63" cy="406" r="24"/>
		</g>
		<path class="st1" d="M308.89,192.33h40.51c7.66,0,60.29-3.3,84.63-4.86c6.92-0.44,12.3-6.18,12.3-13.11v0
			c0-5.89-3.93-11.07-9.6-12.65l-26.79-7.48l-5.91-2.91c-10.5-5.18-22.06-7.87-33.77-7.87H128.95L84.53,90H63.66l13.52,53.8
			l-4.38,3.04c-5.37,3.73-8.57,9.85-8.57,16.39v0c0,6.22,2.9,12.08,7.83,15.86l0,0c3.49,2.67,7.42,4.72,11.64,5.95
			c16.55,4.83,33.71,7.29,50.97,7.29h88.51"/>
		<path class="st1" d="M209.04,178.38H303v31.42h-57.6c-8.65,0-15.67-6.99-15.71-15.64v0c-0.04-8.7,7.01-15.77,15.71-15.77h31.78"/>
		<path class="st11" d="M157.71,169.39L157.71,169.39c-3.31,0-6-2.68-6-6v0c0-3.31,2.68-6,6-6h0c3.31,0,6,2.68,6,6v0
			C163.71,166.7,161.02,169.39,157.71,169.39z"/>
		<path class="st11" d="M181.7,169.39L181.7,169.39c-3.31,0-6-2.68-6-6v0c0-3.31,2.68-6,6-6h0c3.31,0,6,2.68,6,6v0
			C187.7,166.7,185.01,169.39,181.7,169.39z"/>
		<path class="st11" d="M205.69,169.39L205.69,169.39c-3.31,0-6-2.68-6-6v0c0-3.31,2.68-6,6-6h0c3.31,0,6,2.68,6,6v0
			C211.68,166.7,209,169.39,205.69,169.39z"/>
		<path class="st11" d="M229.68,169.39L229.68,169.39c-3.31,0-6-2.68-6-6v0c0-3.31,2.68-6,6-6h0c3.31,0,6,2.68,6,6v0
			C235.67,166.7,232.99,169.39,229.68,169.39z"/>
		<path class="st11" d="M252.92,169.39L252.92,169.39c-3.31,0-6-2.68-6-6v0c0-3.31,2.68-6,6-6h0c3.31,0,6,2.68,6,6v0
			C258.92,166.7,256.24,169.39,252.92,169.39z"/>
		<path class="st11" d="M276.91,169.39L276.91,169.39c-3.31,0-6-2.68-6-6v0c0-3.31,2.68-6,6-6l0,0c3.31,0,6,2.68,6,6v0
			C282.91,166.7,280.22,169.39,276.91,169.39z"/>
		<path class="st11" d="M301.02,169.39L301.02,169.39c-3.31,0-6-2.68-6-6v0c0-3.31,2.68-6,6-6h0c3.31,0,6,2.68,6,6v0
			C307.01,166.7,304.33,169.39,301.02,169.39z"/>
		<path class="st11" d="M325,169.39L325,169.39c-3.31,0-6-2.68-6-6v0c0-3.31,2.68-6,6-6l0,0c3.31,0,6,2.68,6,6v0
			C331,166.7,328.32,169.39,325,169.39z"/>
		<path class="st11" d="M349.62,169.39L349.62,169.39c-3.31,0-6-2.68-6-6v0c0-3.31,2.68-6,6-6l0,0c3.31,0,6,2.68,6,6v0
			C355.61,166.7,352.93,169.39,349.62,169.39z"/>
		<path class="st11" d="M446.34,169.39h-63.32c-3.05,0-5.52-2.47-5.52-5.52v-0.96c0-3.05,2.47-5.52,5.52-5.52h30.46L446.34,169.39z"
			/>
		<line class="st1" x1="43.75" y1="143.8" x2="104.67" y2="143.8"/>
	</g>
</g>
<g id="Text">
</g>
</svg>
